# xmcd CD database file
#
# Track frame offsets:
#	150
#	17267
#	34746
#	48705
#	64354
#	77273
#	88895
#	103140
#	118180
#	129917
#	140466
#	151590
#	159963
#	169732
#
# Disc length: 2448 seconds
#
# Revision: 0
# Processed by: cddbd v1.5.2PL0 Copyright (c) Steve Scherf et al.
# Submitted via: CDex 1.70beta2
#
DISCID=aa098e0e
DTITLE=Burchill, Bob - Cdn. - It's A Grand Garden...
DYEAR=2002
DGENRE=Country
TTITLE0=Canadian Gold
TTITLE1=Field of Green
TTITLE2=Black Creek
TTITLE3=Grand Garden
TTITLE4=Gold and Green
TTITLE5=A Rabbit Tale
TTITLE6=My Life Is Muxic
TTITLE7=New Sandals
TTITLE8=Be Together
TTITLE9=Don't Spray the Lawn
TTITLE10=Wee Don't Want To Heare it!
TTITLE11=Love You In the Mornings Too
TTITLE12=Teh Forklift Guy
TTITLE13=Silver Strings
EXTD=YEAR: 2002
EXTT0=
EXTT1=
EXTT2=
EXTT3=
EXTT4=
EXTT5=
EXTT6=
EXTT7=
EXTT8=
EXTT9=
EXTT10=
EXTT11=
EXTT12=
EXTT13=
PLAYORDER=
